<svg width="940" height="375" viewBox="0 0 940 375" fill="none" xmlns="http://www.w3.org/2000/svg">
<path d="M33.2657 41.2023C43.9964 33.4079 55.746 29.8994 68.581 29.6652C80.3945 29.4496 92.1732 29.6417 104.045 32.3712C107.09 21.3569 107.828 9.82684 115.301 0.792969C113.796 9.84541 113.443 18.9392 111.732 27.8316C110.992 31.6832 111.59 33.8014 116.071 34.9439C154.974 44.8641 188.095 64.9119 215.949 93.577C240.34 118.678 259.061 147.643 272.854 179.822C281.735 200.542 288.117 222.005 291.974 244.178C293.334 251.998 294.695 259.917 294.316 267.933C294.086 272.798 296.097 275.867 300.277 278.46C327.465 295.323 353.915 313.274 378.681 333.581C391.333 343.955 403.151 355.2 412.501 368.772C415.507 373.135 415.038 373.689 409.904 374.402C405.372 375.032 402.029 374.684 398.761 370.571C385.788 354.247 369.147 341.868 352.648 329.446C335.343 316.417 317.059 304.793 298.869 293.049C297.757 292.332 296.546 291.769 295.144 291.005C293.807 292.899 293.585 294.937 293.296 297.057C291.893 307.353 289.197 317.29 283.945 326.337C273.703 343.977 258.469 348.399 239.611 345.831C213.225 342.237 189.279 331.079 164.81 321.572C143.654 313.353 122.323 305.723 99.5459 303.52C87.0929 302.316 74.6019 302.638 62.1702 304.339C58.3325 304.864 57.1992 307.667 56.0891 310.761C51.5265 323.473 46.4333 335.951 38.804 347.205C34.95 352.889 30.7214 358.235 24.2153 361.183C14.6918 365.497 -1.21878 361.675 0.598895 345.747C1.39465 338.774 3.89159 332.538 8.00986 326.955C18.8772 312.221 33.0987 301.786 49.9694 294.961C53.0942 293.697 54.7138 291.928 55.629 288.767C63.2663 262.387 69.4725 235.669 74.7115 208.723C77.6906 193.399 80.4003 178.022 83.4777 162.719C84.2857 158.702 82.578 156.616 79.6596 154.437C63.6191 142.459 48.1264 129.835 35.1453 114.456C27.9142 105.89 21.7075 96.7339 18.1938 85.8704C13.2363 70.5431 17.9486 57.7792 27.9258 46.2468C29.4426 44.4936 31.2935 43.0295 33.2657 41.2023ZM226.572 123.921C221.871 118.523 217.301 113.005 212.446 107.749C188.747 82.0957 160.681 62.928 127.593 51.476C121.936 49.5177 116.228 47.0546 109.842 47.0343C108.909 52.7138 107.901 57.8953 107.106 63.1434C102.982 90.3753 98.6314 117.574 94.1511 144.75C93.6327 147.894 94.2919 149.709 96.8333 151.43C108.956 159.639 120.835 168.218 133.103 176.201C171.477 201.175 211.08 224.147 250.295 247.749C262.096 254.852 273.884 261.976 286.176 269.39C285.273 259.555 284.143 250.378 282.102 241.348C272.377 198.329 254.222 159.264 226.572 123.921ZM71.272 258.71C68.6402 268.976 66.0084 279.242 63.391 289.452C65.2548 290.415 66.7657 289.906 68.162 289.591C88.2221 285.069 107.856 287.891 127.385 292.874C146.489 297.748 164.582 305.469 182.944 312.452C204.55 320.669 225.987 329.413 248.967 333.367C263.229 335.821 274.842 329.843 280.755 316.841C284.258 309.139 285.108 300.868 286.646 292.726C287.657 287.373 285.3 284.244 280.72 281.508C255.41 266.392 230.272 250.988 205.061 235.705C172.022 215.677 139.021 195.587 106.961 174.003C101.917 170.607 96.9436 167.106 91.0818 163.064C84.9034 195.511 79.3046 226.948 71.272 258.71ZM101.7 47.0012C101.145 43.5476 98.0794 43.8919 95.8557 43.4812C83.8833 41.2695 71.8082 40.4984 59.6293 41.2339C51.8363 41.7045 44.5685 43.7957 37.8852 47.7578C23.8822 56.0593 19.2208 71.5547 26.2376 86.1871C32.3683 98.9719 42.5333 108.307 53.0023 117.371C63.5234 126.48 74.6804 134.751 86.2936 143.222C86.8807 140.611 87.4108 138.706 87.729 136.767C89.9843 123.018 92.2484 109.271 94.4083 95.5074C96.9014 79.6212 99.2905 63.7187 101.7 47.0012ZM29.8552 316.369C21.7456 321.73 14.2495 327.733 9.6218 336.554C5.51112 344.39 9.82047 351.426 18.6833 351.741C23.6471 351.917 27.27 349.612 30.3367 346.096C35.7557 339.883 39.4101 332.615 42.6042 325.103C44.8385 319.848 47.4138 314.694 48.7511 308.127C41.5759 309.692 35.9968 312.767 29.8552 316.369Z" fill="#373536" stroke="#fff" stroke-width="2"/>
<path d="M378.11 285.862C382.806 296.73 390.812 299.908 403.48 296.08C416.003 292.296 425.798 284.333 434.656 275.12C444.444 264.939 452.238 253.47 457.25 240.109C459.401 234.374 465.726 233.935 470.53 230.96C471.568 234.493 470.103 237.044 469.502 239.703C466.393 253.446 461.804 266.925 462.303 281.306C462.422 284.735 462.466 288.367 465.679 290.184C468.961 292.04 472.218 290.134 474.967 288.223C487.715 279.361 495.639 266.743 501.827 252.9C504.821 246.203 506.958 239.217 506.297 231.699C506.2 230.595 506.652 229.67 507.501 229.1C511.605 226.346 515.415 223.094 520.094 221.231C522.076 223.098 521.296 225.485 521.897 227.466C524.438 235.831 529.556 239.295 538.08 237.401C552.026 234.302 565.999 231.285 579.667 227.054C581.096 226.611 582.66 225.765 583.998 226.008C592.465 227.549 599.059 222.836 606.153 219.738C606.856 219.431 607.689 219.422 608.421 219.282C609.541 221.111 608.354 222.374 607.867 223.694C602.645 237.847 599.077 252.316 599.369 267.535C599.447 271.643 599.9 275.976 603.681 278.145C607.767 280.489 611.718 278.387 615.237 275.833C627.183 267.162 635.649 255.378 644.053 243.554C648.328 237.542 651.305 230.934 653.468 223.835C655.481 217.229 662.017 216.637 668.208 213.558C664.954 223.813 662.084 232.771 660.84 242.147C659.788 250.07 658.893 257.998 659.111 265.995C659.313 273.39 663.544 275.823 670.137 272.413C678.334 268.172 683.059 260.566 688.132 253.376C695.354 243.143 701.031 231.973 706.888 220.95C710.553 214.052 716.747 211.808 724.093 209.304C720.621 219.398 718.032 228.958 716.771 238.803C715.863 245.887 713.947 252.842 714.148 260.071C714.392 268.841 719.53 271.905 726.994 267.245C735.821 261.734 741.634 253.29 747.294 244.828C757.221 229.991 765.362 214.118 774.002 198.535C777.931 191.449 783.984 186.537 791.189 183.119C797.588 180.083 801.471 181.332 804.714 187.792C808.293 194.918 810.962 202.507 815.804 208.973C817.38 211.077 818.944 213.19 820.871 215.779C826.309 209.656 829.948 202.927 834.146 196.654C862.138 154.822 892.008 114.393 923.949 75.4934C926.996 71.7823 934.66 66.4061 939.708 64.5859C938.987 68.1392 936.435 70.1735 934.606 72.4873C897.18 119.826 862.826 169.352 829.527 219.637C827.463 222.753 827.877 224.707 830.381 227.363C855.524 254.035 885.133 274.925 916.156 294.007C919.135 295.839 922.19 297.548 925.208 299.316C927.294 300.538 929.344 301.455 931.684 299.744C933.548 298.38 935.172 298.903 936.241 300.88C937.35 302.929 938.834 305.209 936.321 307.138C932.627 309.974 928.765 312.598 924.898 315.198C922.73 316.656 920.782 315.373 918.837 314.372C882.009 295.416 847.965 272.623 819.377 242.297C818.711 241.591 818.109 240.707 816.079 240.722C811.021 248.707 805.631 257.048 800.407 265.492C781.745 295.656 763.22 325.902 747.506 357.756C744.485 363.88 738.046 365.626 733.347 369.856C731.914 367.394 733.431 366.115 734.129 364.753C753.578 326.776 774.835 289.824 797.294 253.556C801.063 247.469 804.882 241.413 808.767 235.4C809.83 233.755 810.707 232.348 809.177 230.492C801.125 220.726 794.109 210.261 788.147 197.993C783.739 205.045 779.923 211.41 775.856 217.611C763.504 236.439 750.638 254.866 733.751 270.061C729.887 273.538 725.745 276.606 720.943 278.653C713.211 281.949 707.149 279.535 703.912 271.767C701.591 266.197 700.114 260.407 700.26 254.292C700.3 252.644 700.309 250.969 699.21 249.019C695.473 254.321 692.155 259.627 687.99 264.311C681.738 271.34 674.919 277.642 666.479 281.946C653.48 288.573 644.487 283.332 643.73 268.705C643.561 265.445 643.705 262.168 643.705 257.827C635.849 266.981 628.071 274.673 619.337 281.31C612.56 286.459 605.532 291.236 597.135 293.475C589.129 295.61 583.81 292.438 581.848 284.323C580.7 279.574 580.48 274.794 581.704 269.422C579.463 270.392 578.494 272.017 577.283 273.408C567.757 284.353 557.23 293.88 542.778 297.933C536.834 299.601 530.974 299.99 526.502 295.083C522.165 290.324 522.308 284.573 524.369 278.647C528.798 265.914 537.749 256.584 547.281 247.664C549.324 245.751 551.474 243.953 554.415 241.362C541.62 243.266 529.984 247.499 517.645 244C511.341 260.709 500.428 274.007 487.562 285.806C480.556 292.231 473.207 298.284 463.8 301.047C456.599 303.162 451.808 300.56 449.615 293.44C447.547 286.727 448.303 279.981 449.205 273.225C449.373 271.964 450.11 270.718 448.867 269.102C443.26 274.353 438.456 280.29 432.676 285.254C422.611 293.898 411.917 301.401 399.292 305.838C393.59 307.843 387.741 309.04 381.68 309.037C371.461 309.033 365.151 304.461 361.865 294.721C361.177 292.682 360.492 290.641 359.626 288.068C351.179 289.637 343.094 293.695 332.674 292.266C338.235 287.482 341.483 282.057 348.516 281.854C350.494 281.797 352.448 281.122 354.431 280.978C358.728 280.665 360.632 278.348 361.671 274.216C365.648 258.402 374.588 245.87 387.896 236.511C395.075 231.462 403.153 229.176 411.94 229.709C419.574 230.171 423.019 235.062 420.815 242.329C417.9 251.939 410.642 258.173 403.283 264.212C396.437 269.828 388.932 274.498 380.961 278.363C377.733 279.929 376.295 282.006 378.11 285.862ZM566.895 241.419C565.351 242.401 563.776 243.336 562.269 244.372C553.273 250.559 545.031 257.499 540.365 267.709C537.458 274.068 538.993 281.684 543.57 285.011C547.986 288.22 553.263 287.215 559.304 281.999C559.933 281.456 560.528 280.872 561.117 280.287C572.352 269.125 580.416 255.763 587.572 241.813C589.922 237.232 588.011 234.747 582.888 235.431C577.382 236.166 572.386 238.456 566.895 241.419ZM378.771 254.346C375.986 260.739 375.755 267.324 376.702 274.63C382.733 272.426 387.677 269.76 392.417 266.697C397.526 263.397 402.019 259.384 404.653 253.834C406.468 250.01 407.446 245.46 404.518 242.007C401.914 238.936 397.838 238.986 393.845 240.058C386.488 242.033 381.707 246.622 378.771 254.346Z" fill="#373536" stroke="#fff" stroke-width="2"/>
</svg>
